<?xml version="1.0" encoding="UTF-8" standalone="no"?>
<svg
   xmlns:dc="http://purl.org/dc/elements/1.1/"
   xmlns:cc="http://creativecommons.org/ns#"
   xmlns:rdf="http://www.w3.org/1999/02/22-rdf-syntax-ns#"
   xmlns:svg="http://www.w3.org/2000/svg"
   xmlns="http://www.w3.org/2000/svg"
   xmlns:sodipodi="http://sodipodi.sourceforge.net/DTD/sodipodi-0.dtd"
   xmlns:inkscape="http://www.inkscape.org/namespaces/inkscape"
   width="119.10457mm"
   height="132.26656mm"
   viewBox="0 0 119.10457 132.26655"
   version="1.1"
   id="svg8"
   inkscape:version="1.0.2 (e86c870879, 2021-01-15)"
   sodipodi:docname="stave.svg">
  <defs
     id="defs2" />
  <sodipodi:namedview
     id="base"
     pagecolor="#ffffff"
     bordercolor="#666666"
     borderopacity="1.0"
     inkscape:pageopacity="0.0"
     inkscape:pageshadow="2"
     inkscape:zoom="0.35"
     inkscape:cx="-57.00239"
     inkscape:cy="203.38781"
     inkscape:document-units="mm"
     inkscape:current-layer="layer1"
     inkscape:document-rotation="0"
     showgrid="false"
     fit-margin-top="0"
     fit-margin-left="0"
     fit-margin-right="0"
     fit-margin-bottom="0"
     inkscape:window-width="1920"
     inkscape:window-height="1017"
     inkscape:window-x="1912"
     inkscape:window-y="133"
     inkscape:window-maximized="1" />
  <metadata
     id="metadata5">
    <rdf:RDF>
      <cc:Work
         rdf:about="">
        <dc:format>image/svg+xml</dc:format>
        <dc:type
           rdf:resource="http://purl.org/dc/dcmitype/StillImage" />
        <dc:title></dc:title>
      </cc:Work>
    </rdf:RDF>
  </metadata>
  <g
     inkscape:label="レイヤー 1"
     inkscape:groupmode="layer"
     id="layer1"
     transform="translate(-35.965019,-87.200799)">
    <path
       style="fill:#000000;stroke-width:0.264583"
       d="m 151.72633,217.53259 c -3.57901,-2.15864 -10.59197,-5.95623 -23.01875,-12.46486 -29.870206,-15.64478 -47.110906,-25.99212 -58.753396,-35.26198 -1.30094,-1.03582 -3.30587,-2.63218 -4.4554,-3.54745 -3.15076,-2.5087 -9.54571,-9.36326 -12.0998,-12.46638 -7.22863,-8.78254 -13.54192,-20.79907 -15.95569,-31.53109 -1.45952,-6.48928 -1.87756,-13.95856 -1.07808,-19.26259 0.49039,-3.253393 1.70977,-6.945766 3.03167,-9.180126 1.14789,-1.94023 3.61741,-4.43088 5.185,-5.22938 5.98674,-3.04953 14.01121,-1.04537 22.9492,5.7317 1.45888,1.10617 2.59167,2.700193 2.84397,2.888953 0.39413,0.29488 1.07474,-0.37722 3.20321,-1.511583 1.36248,-0.72612 3.5488,-1.6452 4.85849,-2.04239 2.13857,-0.64858 2.81911,-0.922632 6.38341,-0.922632 3.5655,0 4.17596,0.273752 6.30353,0.921702 4.65701,1.41832 8.946026,4.214323 11.717066,7.638336 2.73922,3.3847 4.7838,8.244 5.23219,12.43519 0.10509,0.98227 0.23749,1.78594 0.29424,1.78594 0.0567,0 1.50139,-0.35119 3.21032,-0.78043 9.54956,-2.3986 16.1194,-1.26785 20.01716,0.79544 2.1202,1.12233 3.19116,2.14975 3.189,5.76364 -0.002,2.57463 -0.52348,4.05571 -1.20056,5.59844 -1.11539,2.54142 -2.69503,5.65606 -5.16099,8.22098 -2.75105,2.86143 -7.55049,8.08005 -10.9846,10.64649 -7.26246,5.42751 -20.993676,13.83318 -35.816546,19.79284 l -5.8116,2.33661 -1.0575,-0.62452 c -0.58162,-0.34348 -1.09714,-0.74347 -1.1456,-0.88885 -0.0485,-0.14538 0.83998,-0.77103 1.97431,-1.39033 6.51825,-3.55871 16.7189,-10.08457 23.49367,-15.03006 11.640986,-8.49778 20.274516,-16.84213 23.041176,-22.26941 0.5651,-1.10854 0.74533,-1.84237 0.75657,-3.08037 0.0168,-1.85627 -0.34645,-2.43467 -2.10192,-3.3465 -1.54925,-0.80472 -6.40425,-0.92477 -10.28278,-0.25426 l -2.87445,0.49692 -0.59512,1.87705 c -2.31854,7.31278 -8.191046,12.97272 -15.894036,15.3187 -2.12757,0.64796 -2.83826,1.02192 -6.40376,1.02192 -3.56605,0 -4.14356,-0.37408 -6.28318,-1.02366 -7.98595,-2.42465 -13.73228,-8.17501 -16.17092,-16.18223 -0.64931,-2.132 -0.7208,-2.76404 -0.7168,-6.33695 0.004,-3.26465 0.10335,-4.29733 0.56194,-5.82083 l 0.5575,-1.85209 -0.58253,-0.46746 c -0.32039,-0.2571 -1.57118,-0.96434 -2.77954,-1.57164 -1.61287,-0.81061 -3.0584,-1.48466 -4.19148,-1.56662 -1.40046,-0.1013 -2.64577,-0.31898 -4.2802,0.59502 -4.46421,2.49653 -4.45239,6.32173 -4.73508,14.78466 -0.36023,10.78391 4.23147,21.80377 8.88738,29.12582 1.47176,2.31454 4.96825,6.6513 8.59391,9.89623 2.60769,2.33386 9.932,8.15745 12.26201,9.50137 0.84451,0.4871 3.20235,1.8698 5.23964,3.07265 10.0795,5.95113 24.720486,13.31261 37.880576,19.04634 l 5.07225,2.20994 15.43073,13.07073 c 8.4869,7.1889 15.48134,13.12134 15.5432,13.1832 0.27101,0.271 -0.29558,-0.0483 -3.28301,-1.85014 z M 57.270084,174.10651 c 3.5573,-1.68366 10.14491,-4.69176 10.52589,-4.80643 0.61218,-0.18425 1.68847,0.7309 1.1886,1.01065 -0.44141,0.24702 -12.12229,4.21088 -12.34254,4.18839 -0.0911,-0.009 0.19149,-0.18598 0.62805,-0.39261 z"
       id="path847"
       sodipodi:nodetypes="sssssssssssssssssssscsssscssssscsscssscscscssscsssssscssscsscc" />
  </g>
</svg>
